<svg width="210" height="210" viewBox="0 0 210 210" fill="none" xmlns="http://www.w3.org/2000/svg">
<g clip-path="url(#clip0_25_362)">
<path opacity="0.3" d="M168.087 105.35L154.7 104.388L152.075 91.2625C149.937 80.3466 144.073 70.5125 135.487 63.4419C126.9 56.3714 116.123 52.5036 105 52.5C86.975 52.5 70.7 62.475 62.3 78.4L57.925 86.7125L48.5625 87.675C40.0006 88.6249 32.0922 92.7067 26.3581 99.1353C20.624 105.564 17.469 113.886 17.5 122.5C17.5 141.837 33.1625 157.5 52.5 157.5H166.25C180.687 157.5 192.5 145.688 192.5 131.25C192.5 117.688 181.825 106.225 168.087 105.35ZM117.687 113.75V140H92.225V113.75H70L105 78.75L140 113.75H117.687Z" fill="black" fill-opacity="0.12"/>
<path d="M169.313 87.85C166.373 72.955 158.354 59.5425 146.624 49.9034C134.895 40.2643 120.182 34.9966 105 35C79.7125 35 57.75 49.35 46.8125 70.35C33.952 71.7398 22.0588 77.8331 13.418 87.4591C4.77725 97.0851 -0.00150239 109.565 3.54312e-07 122.5C3.54312e-07 151.462 23.5375 175 52.5 175H166.25C190.4 175 210 155.4 210 131.25C210 108.15 192.063 89.425 169.313 87.85ZM166.25 157.5H52.5C33.1625 157.5 17.5 141.838 17.5 122.5C17.5 104.563 30.8875 89.6 48.65 87.7625L58.0125 86.8L62.3875 78.4875C66.4114 70.6543 72.5189 64.0834 80.0373 59.4982C87.5558 54.913 96.1937 52.4914 105 52.5C127.925 52.5 147.7 68.775 152.162 91.2625L154.788 104.388L168.175 105.35C174.753 105.792 180.919 108.71 185.432 113.515C189.945 118.321 192.471 124.658 192.5 131.25C192.5 145.687 180.687 157.5 166.25 157.5ZM70 113.75H92.3125V140H117.687V113.75H140L105 78.75L70 113.75Z" fill="black" fill-opacity="0.12"/>
<path d="M168.822 87.9468L168.896 88.3224L169.278 88.3488C191.771 89.906 209.5 108.418 209.5 131.25C209.5 155.124 190.124 174.5 166.25 174.5H52.5C23.8136 174.5 0.5 151.186 0.5 122.5C0.498512 109.688 5.2317 97.3273 13.7901 87.7931C22.3485 78.2588 34.1284 72.2236 46.8662 70.8471L47.1323 70.8183L47.256 70.581C58.1109 49.7395 79.9064 35.5 105 35.5C120.066 35.4966 134.667 40.7241 146.307 50.2897C157.947 59.8553 165.905 73.1655 168.822 87.9468ZM48.5989 87.2651L48.5985 87.2652C30.5783 89.1293 17 104.309 17 122.5C17 142.114 32.8864 158 52.5 158H166.25C180.964 158 193 145.964 193 131.25V131.248C192.97 124.529 190.396 118.071 185.796 113.173C181.197 108.276 174.913 105.302 168.21 104.851C168.209 104.851 168.209 104.851 168.209 104.851L155.203 103.916L152.653 91.1652C148.144 68.4444 128.164 52.0002 105 52C96.1022 51.9913 87.374 54.4382 79.777 59.0713C72.1807 63.7039 66.01 70.3427 61.944 78.2566C61.9436 78.2574 61.9432 78.2582 61.9428 78.259L57.6948 86.33L48.5989 87.2651ZM92.8125 113.75V113.25H92.3125H71.2071L105 79.4571L138.793 113.25H117.688H117.188V113.75V139.5H92.8125V113.75Z" stroke="black" stroke-opacity="0.25"/>
</g>
<defs>
<clipPath id="clip0_25_362">
<rect width="210" height="210" fill="white"/>
</clipPath>
</defs>
</svg>
