<svg width="262" height="209" viewBox="0 0 262 209" fill="none" xmlns="http://www.w3.org/2000/svg">
<mask id="path-1-inside-1_165_15" fill="white">
<path d="M0 15C0 6.71572 6.71573 0 15 0H115.058C123.342 0 130.058 6.71573 130.058 15V209H15C6.71572 209 0 202.284 0 194V15Z"/>
</mask>
<path d="M0 15C0 6.71572 6.71573 0 15 0H115.058C123.342 0 130.058 6.71573 130.058 15V209H15C6.71572 209 0 202.284 0 194V15Z" fill="#F9C57C"/>
<path d="M-1 15C-1 6.16344 6.16344 -1 15 -1H114.058C122.894 -1 130.058 6.16344 130.058 15C130.058 7.26801 123.342 1 115.058 1H15C7.26801 1 1 7.26801 1 15H-1ZM130.058 210H15C6.16344 210 -1 202.837 -1 194H1C1 201.732 7.26801 208 15 208H130.058V210ZM15 210C6.16344 210 -1 202.837 -1 194V15C-1 6.16344 6.16344 -1 15 -1V1C7.26801 1 1 7.26801 1 15V194C1 201.732 7.26801 208 15 208V210ZM130.058 0V209V0Z" fill="black" fill-opacity="0.25" mask="url(#path-1-inside-1_165_15)"/>
<rect x="7.53955" y="13.7612" width="235.612" height="186.638" rx="15" fill="white"/>
<rect x="8.03955" y="14.2612" width="234.612" height="185.638" rx="14.5" stroke="black" stroke-opacity="0.25"/>
<rect y="22.3623" width="262" height="186.638" rx="15" fill="#FCCF8F"/>
<rect x="0.5" y="22.8623" width="261" height="185.638" rx="14.5" stroke="black" stroke-opacity="0.25"/>
</svg>
